<svg id="Layer_3" enable-background="new 0 0 64 64" height="512" viewBox="0 0 64 64" width="512" xmlns="http://www.w3.org/2000/svg"><g><circle cx="47" cy="50" fill="#f4b2b0" r="12"/><g fill="#b3404a"><path d="m20 15h3v3c0 .552.447 1 1 1h4c.553 0 1-.448 1-1v-3h3c.553 0 1-.448 1-1v-4c0-.552-.447-1-1-1h-3v-3c0-.552-.447-1-1-1h-4c-.553 0-1 .448-1 1v3h-3c-.553 0-1 .448-1 1v4c0 .552.447 1 1 1zm1-4h3c.553 0 1-.448 1-1v-3h2v3c0 .552.447 1 1 1h3v2h-3c-.553 0-1 .448-1 1v3h-2v-3c0-.552-.447-1-1-1h-3z"/><path d="m22 25h18v2h-18z"/><path d="m22 33h18v2h-18z"/><path d="m12 25h4v2h-4z"/><path d="m12 33h4v2h-4z"/><path d="m12 41h4v2h-4z"/><path d="m12 49h4v2h-4z"/><path d="m47 45c1.103 0 2 .897 2 2h2c0-1.858-1.279-3.411-3-3.858v-2.142h-2v2.142c-1.721.447-3 2-3 3.858 0 2.206 1.794 4 4 4 1.103 0 2 .897 2 2s-.897 2-2 2-2-.897-2-2h-2c0 1.858 1.279 3.411 3 3.858v2.142h2v-2.142c1.721-.447 3-2 3-3.858 0-2.206-1.794-4-4-4-1.103 0-2-.897-2-2s.897-2 2-2z"/><path d="m48 37.051v-35.051c0-.552-.447-1-1-1h-42c-.553 0-1 .448-1 1v56c0 .552.447 1 1 1h32.641c2.367 2.46 5.684 4 9.359 4 7.168 0 13-5.832 13-13 0-6.831-5.299-12.435-12-12.949zm-42 19.949v-54h40v34.051c-.683.052-1.35.158-2 .313v-15.364c0-.552-.447-1-1-1h-34c-.553 0-1 .448-1 1v32c0 .552.447 1 1 1h26.003c.293.702.654 1.367 1.06 2zm31.641-16h-15.641v2h14.063c-.407.633-.767 1.298-1.06 2h-15.003v-6h20.104c-.901.567-1.729 1.236-2.463 2zm-3.59 8h-12.051v2h12.051c.052.683.158 1.35.313 2h-14.364v-6h14.363c-.154.65-.26 1.317-.312 2zm7.949-12h-22v-6h22zm0-8h-22v-6h22zm-24 0h-8v-6h8zm-8 2h8v6h-8zm0 8h8v6h-8zm0 8h8v6h-8zm37 14c-6.065 0-11-4.935-11-11s4.935-11 11-11 11 4.935 11 11-4.935 11-11 11z"/></g></g></svg>